{"asset":{"version":"2.0","generator":"THREE.GLTFExporter"},"scenes":[{"nodes":[1]}],"scene":0,"nodes":[{"matrix":[1,0,0,0,0,1,0,0,0,0,4,0,0,0,0,1],"extras":{"layerId":15},"mesh":0},{"matrix":[1,0,0,0,0,-2.220446049250313e-16,-1.0000000000000002,0,0,1.0000000000000002,-2.220446049250313e-16,0,0,0,0,1],"name":"DEM Vértiente de Caribe","extras":{"layerId":15},"children":[0]}],"bufferViews":[{"buffer":0,"byteOffset":0,"byteLength":4334412,"target":34962,"byteStride":12},{"buffer":0,"byteOffset":4334412,"byteLength":2889608,"target":34962,"byteStride":8},{"buffer":0,"byteOffset":7224020,"byteLength":4334412,"target":34962,"byteStride":12},{"buffer":0,"byteOffset":11558432,"byteLength":1745256,"target":34963}],"buffers":[{"byteLength":13303688,"uri":"caribe.bin"}],"accessors":[{"bufferView":0,"componentType":5126,"count":361201,"max":[200848.078125,200848.078125,3253.138427734375],"min":[-200848.078125,-200848.078125,-7.7841668128967285],"type":"VEC3"},{"bufferView":1,"componentType":5126,"count":361201,"max":[1,1],"min":[0,0],"type":"VEC2"},{"bufferView":2,"componentType":5126,"count":361201,"max":[1,0.5302340388298035,1],"min":[-0.43368393182754517,-0.5021923184394836,0],"type":"VEC3"},{"bufferView":3,"componentType":5125,"count":436314,"max":[347091],"min":[12964],"type":"SCALAR"}],"materials":[{"pbrMetallicRoughness":{"metallicFactor":0.5,"roughnessFactor":0.5,"baseColorTexture":{"index":0}},"doubleSided":true}],"textures":[{"sampler":0,"source":0}],"samplers":[{"magFilter":9729,"minFilter":9987,"wrapS":33071,"wrapT":33071}],"images":[{"mimeType":"image/png","uri":"caribe.png"}],"meshes":[{"primitives":[{"mode":4,"attributes":{"POSITION":0,"TEXCOORD_0":1,"NORMAL":2},"indices":3,"material":0}]}]}