{"asset":{"version":"2.0","generator":"THREE.GLTFExporter"},"scenes":[{"nodes":[1]}],"scene":0,"nodes":[{"matrix":[1,0,0,0,0,1,0,0,0,0,4,0,0,0,0,1],"extras":{"layerId":23},"mesh":0},{"matrix":[1,0,0,0,0,-2.220446049250313e-16,-1.0000000000000002,0,0,1.0000000000000002,-2.220446049250313e-16,0,0,0,0,1],"name":"DEM vertiente del pacifico","extras":{"layerId":23},"children":[0]}],"bufferViews":[{"buffer":0,"byteOffset":0,"byteLength":4334412,"target":34962,"byteStride":12},{"buffer":0,"byteOffset":4334412,"byteLength":2889608,"target":34962,"byteStride":8},{"buffer":0,"byteOffset":7224020,"byteLength":4334412,"target":34962,"byteStride":12},{"buffer":0,"byteOffset":11558432,"byteLength":1747392,"target":34963}],"buffers":[{"byteLength":13305824,"uri":"pacifico.bin"}],"accessors":[{"bufferView":0,"componentType":5126,"count":361201,"max":[170934.75,170934.75,4079.585205078125],"min":[-170934.75,-170934.75,-6.245927333831787],"type":"VEC3"},{"bufferView":1,"componentType":5126,"count":361201,"max":[1,1],"min":[0,0],"type":"VEC2"},{"bufferView":2,"componentType":5126,"count":361201,"max":[1,0.4729403555393219,1],"min":[-0.553618848323822,-0.5558047294616699,0],"type":"VEC3"},{"bufferView":3,"componentType":5125,"count":436848,"max":[271468],"min":[89588],"type":"SCALAR"}],"materials":[{"pbrMetallicRoughness":{"metallicFactor":0.5,"roughnessFactor":0.5,"baseColorTexture":{"index":0}},"doubleSided":true}],"textures":[{"sampler":0,"source":0}],"samplers":[{"magFilter":9729,"minFilter":9987,"wrapS":33071,"wrapT":33071}],"images":[{"mimeType":"image/png","uri":"pacifico.png"}],"meshes":[{"primitives":[{"mode":4,"attributes":{"POSITION":0,"TEXCOORD_0":1,"NORMAL":2},"indices":3,"material":0}]}]}